<svg width="64" height="64" viewBox="0 0 64 64" fill="none" xmlns="http://www.w3.org/2000/svg" role="img" aria-label="Voggix">
  <defs>
    <linearGradient id="voggix-official-bg" x1="0" y1="0" x2="64" y2="64" gradientUnits="userSpaceOnUse">
      <stop stop-color="#2563EB"/>
      <stop offset="0.5" stop-color="#355CFF"/>
      <stop offset="0.76" stop-color="#8B5CF6"/>
      <stop offset="1" stop-color="#EC4899"/>
    </linearGradient>
  </defs>
  <rect width="64" height="64" rx="14" fill="url(#voggix-official-bg)"/>
  <path d="M8.8 16.1C7.9 14.6 9 12.7 10.7 12.7H20.9C21.9 12.7 22.8 13.3 23.2 14.2L32.7 35.3C33.5 37.2 36.2 37.3 37.2 35.5L49.6 14.1C50 13.2 51 12.7 52 12.7H62.1C63.9 12.7 65 14.7 63.9 16.2L44.1 46.1C40.3 51.8 31.8 51.4 28.7 45.2L8.8 16.1Z" fill="white"/>
  <path d="M37.1 12.7H50.6C52.2 12.7 53.2 14.5 52.2 15.8L38.4 35.5C35.7 39.3 30.2 39.6 27.2 36.1L22.4 30.6L37.1 12.7Z" fill="white" opacity="0.82"/>
  <rect x="50.1" y="7.7" width="9.1" height="9.1" rx="2" transform="rotate(45 50.1 7.7)" fill="white"/>
</svg>
