<svg width="1200" height="630" viewBox="0 0 1200 630" fill="none" xmlns="http://www.w3.org/2000/svg" role="img" aria-label="Voggix, webs premium y sistemas digitales">
  <defs>
    <linearGradient id="bg" x1="0" y1="0" x2="1200" y2="630" gradientUnits="userSpaceOnUse">
      <stop stop-color="#2563EB"/>
      <stop offset="0.48" stop-color="#355CFF"/>
      <stop offset="0.74" stop-color="#8B5CF6"/>
      <stop offset="1" stop-color="#EC4899"/>
    </linearGradient>
    <radialGradient id="light" cx="0" cy="0" r="1" gradientUnits="userSpaceOnUse" gradientTransform="translate(248 120) rotate(42) scale(570 360)">
      <stop stop-color="white" stop-opacity="0.32"/>
      <stop offset="1" stop-color="white" stop-opacity="0"/>
    </radialGradient>
    <pattern id="grid" width="44" height="44" patternUnits="userSpaceOnUse">
      <path d="M44 0H0V44" stroke="white" stroke-opacity="0.08"/>
    </pattern>
  </defs>
  <rect width="1200" height="630" fill="url(#bg)"/>
  <rect width="1200" height="630" fill="url(#light)"/>
  <rect width="1200" height="630" fill="url(#grid)"/>
  <path d="M125 175C119 165 126 152 138 152H198C205 152 211 156 214 163L270 286C275 297 291 298 296 287L369 163C372 156 379 152 386 152H445C457 152 464 165 457 176L340 352C317 386 267 382 248 345L125 175Z" fill="white"/>
  <path d="M306 152H385C397 152 404 165 397 175L316 290C301 311 269 313 252 294L224 261L306 152Z" fill="white" opacity="0.82"/>
  <rect x="381" y="99" width="54" height="54" rx="12" transform="rotate(45 381 99)" fill="white"/>
  <text x="500" y="279" fill="white" font-family="Poppins, Inter, Arial, sans-serif" font-size="104" font-weight="900" letter-spacing="4">VOGGIX</text>
  <text x="126" y="438" fill="white" font-family="Poppins, Inter, Arial, sans-serif" font-size="40" font-weight="800" letter-spacing="11">WEBS PREMIUM Y SISTEMAS DIGITALES</text>
  <text x="128" y="502" fill="white" fill-opacity="0.82" font-family="Inter, Arial, sans-serif" font-size="30" font-weight="600">Para negocios que viven de servicios, citas, reservas y clientes.</text>
</svg>
